<svg xmlns="http://www.w3.org/2000/svg" xmlns:xlink="http://www.w3.org/1999/xlink" version="1.1" x="0px" y="0px" viewBox="0 0 100 100"  xml:space="preserve"><path d="M22.17,83.3C22.58,87.9,36.77,90,50,90c13.17,0,27.3-2.09,27.82-6.65c0.02-0.07,0.04-0.14,0.04-0.21  c0-0.01,0.01-0.03,0.01-0.04c0-0.05-0.02-0.09-0.03-0.14c-0.01-0.05,0-0.11-0.02-0.16l-0.04-0.12c-0.04-0.21-0.1-0.42-0.19-0.62  L55.31,10.71C55.17,10.29,54.78,10,54.34,10h-8.67c-0.44,0-0.83,0.29-0.97,0.71L22.91,80.45l-0.49,1.59  c-0.11,0.22-0.17,0.45-0.21,0.68l-0.02,0.07c-0.01,0.03,0,0.06-0.01,0.09c-0.01,0.07-0.04,0.14-0.04,0.21  c0,0.02,0.01,0.04,0.01,0.06C22.15,83.21,22.16,83.25,22.17,83.3z M46.41,12.02h7.19L74.74,79.7C69.78,77.32,59.64,76.2,50,76.2  c-9.63,0-19.76,1.12-24.73,3.5L46.41,12.02z M24.34,82.66c1.29-1.76,10.04-4.45,25.66-4.45c15.47,0,24.42,2.76,25.68,4.48l0.15,0.47  c-0.25,1.68-9.33,4.81-25.82,4.81c-16.7,0-25.55-3.08-25.82-4.8L24.34,82.66z"></path></svg>